<svg width="1280" height="640" viewBox="0 0 1280 640" xmlns="http://www.w3.org/2000/svg">
  <rect width="1280" height="640" fill="#0a0a1a" />
  <polygon points="30.3,-17.5 30.3,17.5 0.0,35.0 -30.3,17.5 -30.3,-17.5 -0.0,-35.0" fill="none" stroke="#162a44" stroke-width="1" />
  <polygon points="90.9,-17.5 90.9,17.5 60.6,35.0 30.3,17.5 30.3,-17.5 60.6,-35.0" fill="none" stroke="#162a44" stroke-width="1" />
  <polygon points="151.6,-17.5 151.6,17.5 121.2,35.0 90.9,17.5 90.9,-17.5 121.2,-35.0" fill="none" stroke="#162a44" stroke-width="1" />
  <polygon points="212.2,-17.5 212.2,17.5 181.9,35.0 151.6,17.5 151.6,-17.5 181.9,-35.0" fill="none" stroke="#162a44" stroke-width="1" />
  <polygon points="272.8,-17.5 272.8,17.5 242.5,35.0 212.2,17.5 212.2,-17.5 242.5,-35.0" fill="none" stroke="#162a44" stroke-width="1" />
  <polygon points="333.4,-17.5 333.4,17.5 303.1,35.0 272.8,17.5 272.8,-17.5 303.1,-35.0" fill="none" stroke="#162a44" stroke-width="1" />
  <polygon points="394.0,-17.5 394.0,17.5 363.7,35.0 333.4,17.5 333.4,-17.5 363.7,-35.0" fill="none" stroke="#162a44" stroke-width="1" />
  <polygon points="454.7,-17.5 454.7,17.5 424.4,35.0 394.0,17.5 394.0,-17.5 424.4,-35.0" fill="none" stroke="#162a44" stroke-width="1" />
  <polygon points="515.3,-17.5 515.3,17.5 485.0,35.0 454.7,17.5 454.7,-17.5 485.0,-35.0" fill="none" stroke="#162a44" stroke-width="1" />
  <polygon points="575.9,-17.5 575.9,17.5 545.6,35.0 515.3,17.5 515.3,-17.5 545.6,-35.0" fill="none" stroke="#162a44" stroke-width="1" />
  <polygon points="636.5,-17.5 636.5,17.5 606.2,35.0 575.9,17.5 575.9,-17.5 606.2,-35.0" fill="none" stroke="#162a44" stroke-width="1" />
  <polygon points="697.2,-17.5 697.2,17.5 666.8,35.0 636.5,17.5 636.5,-17.5 666.8,-35.0" fill="none" stroke="#162a44" stroke-width="1" />
  <polygon points="757.8,-17.5 757.8,17.5 727.5,35.0 697.2,17.5 697.2,-17.5 727.5,-35.0" fill="none" stroke="#162a44" stroke-width="1" />
  <polygon points="818.4,-17.5 818.4,17.5 788.1,35.0 757.8,17.5 757.8,-17.5 788.1,-35.0" fill="none" stroke="#162a44" stroke-width="1" />
  <polygon points="879.0,-17.5 879.0,17.5 848.7,35.0 818.4,17.5 818.4,-17.5 848.7,-35.0" fill="none" stroke="#162a44" stroke-width="1" />
  <polygon points="939.6,-17.5 939.6,17.5 909.3,35.0 879.0,17.5 879.0,-17.5 909.3,-35.0" fill="none" stroke="#162a44" stroke-width="1" />
  <polygon points="1000.3,-17.5 1000.3,17.5 969.9,35.0 939.6,17.5 939.6,-17.5 969.9,-35.0" fill="none" stroke="#162a44" stroke-width="1" />
  <polygon points="1060.9,-17.5 1060.9,17.5 1030.6,35.0 1000.3,17.5 1000.3,-17.5 1030.6,-35.0" fill="none" stroke="#162a44" stroke-width="1" />
  <polygon points="1121.5,-17.5 1121.5,17.5 1091.2,35.0 1060.9,17.5 1060.9,-17.5 1091.2,-35.0" fill="none" stroke="#162a44" stroke-width="1" />
  <polygon points="1182.1,-17.5 1182.1,17.5 1151.8,35.0 1121.5,17.5 1121.5,-17.5 1151.8,-35.0" fill="none" stroke="#162a44" stroke-width="1" />
  <polygon points="1242.7,-17.5 1242.7,17.5 1212.4,35.0 1182.1,17.5 1182.1,-17.5 1212.4,-35.0" fill="none" stroke="#162a44" stroke-width="1" />
  <polygon points="1303.4,-17.5 1303.4,17.5 1273.1,35.0 1242.7,17.5 1242.7,-17.5 1273.1,-35.0" fill="none" stroke="#162a44" stroke-width="1" />
  <polygon points="1364.0,-17.5 1364.0,17.5 1333.7,35.0 1303.4,17.5 1303.4,-17.5 1333.7,-35.0" fill="none" stroke="#162a44" stroke-width="1" />
  <polygon points="60.6,35.0 60.6,70.0 30.3,87.5 -0.0,70.0 0.0,35.0 30.3,17.5" fill="none" stroke="#162a44" stroke-width="1" />
  <polygon points="121.2,35.0 121.2,70.0 90.9,87.5 60.6,70.0 60.6,35.0 90.9,17.5" fill="none" stroke="#162a44" stroke-width="1" />
  <polygon points="181.9,35.0 181.9,70.0 151.6,87.5 121.2,70.0 121.2,35.0 151.6,17.5" fill="none" stroke="#162a44" stroke-width="1" />
  <polygon points="242.5,35.0 242.5,70.0 212.2,87.5 181.9,70.0 181.9,35.0 212.2,17.5" fill="none" stroke="#162a44" stroke-width="1" />
  <polygon points="303.1,35.0 303.1,70.0 272.8,87.5 242.5,70.0 242.5,35.0 272.8,17.5" fill="none" stroke="#162a44" stroke-width="1" />
  <polygon points="363.7,35.0 363.7,70.0 333.4,87.5 303.1,70.0 303.1,35.0 333.4,17.5" fill="none" stroke="#162a44" stroke-width="1" />
  <polygon points="424.4,35.0 424.4,70.0 394.0,87.5 363.7,70.0 363.7,35.0 394.0,17.5" fill="none" stroke="#162a44" stroke-width="1" />
  <polygon points="485.0,35.0 485.0,70.0 454.7,87.5 424.4,70.0 424.4,35.0 454.7,17.5" fill="none" stroke="#162a44" stroke-width="1" />
  <polygon points="545.6,35.0 545.6,70.0 515.3,87.5 485.0,70.0 485.0,35.0 515.3,17.5" fill="none" stroke="#162a44" stroke-width="1" />
  <polygon points="606.2,35.0 606.2,70.0 575.9,87.5 545.6,70.0 545.6,35.0 575.9,17.5" fill="none" stroke="#162a44" stroke-width="1" />
  <polygon points="666.8,35.0 666.8,70.0 636.5,87.5 606.2,70.0 606.2,35.0 636.5,17.5" fill="none" stroke="#162a44" stroke-width="1" />
  <polygon points="727.5,35.0 727.5,70.0 697.2,87.5 666.8,70.0 666.8,35.0 697.2,17.5" fill="none" stroke="#162a44" stroke-width="1" />
  <polygon points="788.1,35.0 788.1,70.0 757.8,87.5 727.5,70.0 727.5,35.0 757.8,17.5" fill="none" stroke="#162a44" stroke-width="1" />
  <polygon points="848.7,35.0 848.7,70.0 818.4,87.5 788.1,70.0 788.1,35.0 818.4,17.5" fill="none" stroke="#162a44" stroke-width="1" />
  <polygon points="909.3,35.0 909.3,70.0 879.0,87.5 848.7,70.0 848.7,35.0 879.0,17.5" fill="none" stroke="#162a44" stroke-width="1" />
  <polygon points="969.9,35.0 969.9,70.0 939.6,87.5 909.3,70.0 909.3,35.0 939.6,17.5" fill="none" stroke="#162a44" stroke-width="1" />
  <polygon points="1030.6,35.0 1030.6,70.0 1000.3,87.5 969.9,70.0 969.9,35.0 1000.3,17.5" fill="none" stroke="#162a44" stroke-width="1" />
  <polygon points="1091.2,35.0 1091.2,70.0 1060.9,87.5 1030.6,70.0 1030.6,35.0 1060.9,17.5" fill="none" stroke="#162a44" stroke-width="1" />
  <polygon points="1151.8,35.0 1151.8,70.0 1121.5,87.5 1091.2,70.0 1091.2,35.0 1121.5,17.5" fill="none" stroke="#162a44" stroke-width="1" />
  <polygon points="1212.4,35.0 1212.4,70.0 1182.1,87.5 1151.8,70.0 1151.8,35.0 1182.1,17.5" fill="none" stroke="#162a44" stroke-width="1" />
  <polygon points="1273.1,35.0 1273.1,70.0 1242.7,87.5 1212.4,70.0 1212.4,35.0 1242.7,17.5" fill="none" stroke="#162a44" stroke-width="1" />
  <polygon points="1333.7,35.0 1333.7,70.0 1303.4,87.5 1273.1,70.0 1273.1,35.0 1303.4,17.5" fill="none" stroke="#162a44" stroke-width="1" />
  <polygon points="1394.3,35.0 1394.3,70.0 1364.0,87.5 1333.7,70.0 1333.7,35.0 1364.0,17.5" fill="none" stroke="#162a44" stroke-width="1" />
  <polygon points="30.3,87.5 30.3,122.5 0.0,140.0 -30.3,122.5 -30.3,87.5 -0.0,70.0" fill="none" stroke="#162a44" stroke-width="1" />
  <polygon points="90.9,87.5 90.9,122.5 60.6,140.0 30.3,122.5 30.3,87.5 60.6,70.0" fill="none" stroke="#162a44" stroke-width="1" />
  <polygon points="151.6,87.5 151.6,122.5 121.2,140.0 90.9,122.5 90.9,87.5 121.2,70.0" fill="none" stroke="#162a44" stroke-width="1" />
  <polygon points="212.2,87.5 212.2,122.5 181.9,140.0 151.6,122.5 151.6,87.5 181.9,70.0" fill="none" stroke="#162a44" stroke-width="1" />
  <polygon points="272.8,87.5 272.8,122.5 242.5,140.0 212.2,122.5 212.2,87.5 242.5,70.0" fill="none" stroke="#162a44" stroke-width="1" />
  <polygon points="333.4,87.5 333.4,122.5 303.1,140.0 272.8,122.5 272.8,87.5 303.1,70.0" fill="none" stroke="#162a44" stroke-width="1" />
  <polygon points="394.0,87.5 394.0,122.5 363.7,140.0 333.4,122.5 333.4,87.5 363.7,70.0" fill="none" stroke="#162a44" stroke-width="1" />
  <polygon points="454.7,87.5 454.7,122.5 424.4,140.0 394.0,122.5 394.0,87.5 424.4,70.0" fill="none" stroke="#162a44" stroke-width="1" />
  <polygon points="515.3,87.5 515.3,122.5 485.0,140.0 454.7,122.5 454.7,87.5 485.0,70.0" fill="none" stroke="#162a44" stroke-width="1" />
  <polygon points="575.9,87.5 575.9,122.5 545.6,140.0 515.3,122.5 515.3,87.5 545.6,70.0" fill="none" stroke="#162a44" stroke-width="1" />
  <polygon points="636.5,87.5 636.5,122.5 606.2,140.0 575.9,122.5 575.9,87.5 606.2,70.0" fill="none" stroke="#162a44" stroke-width="1" />
  <polygon points="697.2,87.5 697.2,122.5 666.8,140.0 636.5,122.5 636.5,87.5 666.8,70.0" fill="none" stroke="#162a44" stroke-width="1" />
  <polygon points="757.8,87.5 757.8,122.5 727.5,140.0 697.2,122.5 697.2,87.5 727.5,70.0" fill="none" stroke="#162a44" stroke-width="1" />
  <polygon points="818.4,87.5 818.4,122.5 788.1,140.0 757.8,122.5 757.8,87.5 788.1,70.0" fill="none" stroke="#162a44" stroke-width="1" />
  <polygon points="879.0,87.5 879.0,122.5 848.7,140.0 818.4,122.5 818.4,87.5 848.7,70.0" fill="none" stroke="#162a44" stroke-width="1" />
  <polygon points="939.6,87.5 939.6,122.5 909.3,140.0 879.0,122.5 879.0,87.5 909.3,70.0" fill="none" stroke="#162a44" stroke-width="1" />
  <polygon points="1000.3,87.5 1000.3,122.5 969.9,140.0 939.6,122.5 939.6,87.5 969.9,70.0" fill="none" stroke="#162a44" stroke-width="1" />
  <polygon points="1060.9,87.5 1060.9,122.5 1030.6,140.0 1000.3,122.5 1000.3,87.5 1030.6,70.0" fill="none" stroke="#162a44" stroke-width="1" />
  <polygon points="1121.5,87.5 1121.5,122.5 1091.2,140.0 1060.9,122.5 1060.9,87.5 1091.2,70.0" fill="none" stroke="#162a44" stroke-width="1" />
  <polygon points="1182.1,87.5 1182.1,122.5 1151.8,140.0 1121.5,122.5 1121.5,87.5 1151.8,70.0" fill="none" stroke="#162a44" stroke-width="1" />
  <polygon points="1242.7,87.5 1242.7,122.5 1212.4,140.0 1182.1,122.5 1182.1,87.5 1212.4,70.0" fill="none" stroke="#162a44" stroke-width="1" />
  <polygon points="1303.4,87.5 1303.4,122.5 1273.1,140.0 1242.7,122.5 1242.7,87.5 1273.1,70.0" fill="none" stroke="#162a44" stroke-width="1" />
  <polygon points="1364.0,87.5 1364.0,122.5 1333.7,140.0 1303.4,122.5 1303.4,87.5 1333.7,70.0" fill="none" stroke="#162a44" stroke-width="1" />
  <polygon points="60.6,140.0 60.6,175.0 30.3,192.5 -0.0,175.0 0.0,140.0 30.3,122.5" fill="none" stroke="#162a44" stroke-width="1" />
  <polygon points="121.2,140.0 121.2,175.0 90.9,192.5 60.6,175.0 60.6,140.0 90.9,122.5" fill="none" stroke="#162a44" stroke-width="1" />
  <polygon points="181.9,140.0 181.9,175.0 151.6,192.5 121.2,175.0 121.2,140.0 151.6,122.5" fill="none" stroke="#162a44" stroke-width="1" />
  <polygon points="242.5,140.0 242.5,175.0 212.2,192.5 181.9,175.0 181.9,140.0 212.2,122.5" fill="none" stroke="#162a44" stroke-width="1" />
  <polygon points="303.1,140.0 303.1,175.0 272.8,192.5 242.5,175.0 242.5,140.0 272.8,122.5" fill="none" stroke="#162a44" stroke-width="1" />
  <polygon points="363.7,140.0 363.7,175.0 333.4,192.5 303.1,175.0 303.1,140.0 333.4,122.5" fill="none" stroke="#162a44" stroke-width="1" />
  <polygon points="424.4,140.0 424.4,175.0 394.0,192.5 363.7,175.0 363.7,140.0 394.0,122.5" fill="none" stroke="#162a44" stroke-width="1" />
  <polygon points="485.0,140.0 485.0,175.0 454.7,192.5 424.4,175.0 424.4,140.0 454.7,122.5" fill="none" stroke="#162a44" stroke-width="1" />
  <polygon points="545.6,140.0 545.6,175.0 515.3,192.5 485.0,175.0 485.0,140.0 515.3,122.5" fill="none" stroke="#162a44" stroke-width="1" />
  <polygon points="606.2,140.0 606.2,175.0 575.9,192.5 545.6,175.0 545.6,140.0 575.9,122.5" fill="none" stroke="#162a44" stroke-width="1" />
  <polygon points="666.8,140.0 666.8,175.0 636.5,192.5 606.2,175.0 606.2,140.0 636.5,122.5" fill="none" stroke="#162a44" stroke-width="1" />
  <polygon points="727.5,140.0 727.5,175.0 697.2,192.5 666.8,175.0 666.8,140.0 697.2,122.5" fill="none" stroke="#162a44" stroke-width="1" />
  <polygon points="788.1,140.0 788.1,175.0 757.8,192.5 727.5,175.0 727.5,140.0 757.8,122.5" fill="none" stroke="#162a44" stroke-width="1" />
  <polygon points="848.7,140.0 848.7,175.0 818.4,192.5 788.1,175.0 788.1,140.0 818.4,122.5" fill="none" stroke="#162a44" stroke-width="1" />
  <polygon points="909.3,140.0 909.3,175.0 879.0,192.5 848.7,175.0 848.7,140.0 879.0,122.5" fill="none" stroke="#162a44" stroke-width="1" />
  <polygon points="969.9,140.0 969.9,175.0 939.6,192.5 909.3,175.0 909.3,140.0 939.6,122.5" fill="none" stroke="#162a44" stroke-width="1" />
  <polygon points="1030.6,140.0 1030.6,175.0 1000.3,192.5 969.9,175.0 969.9,140.0 1000.3,122.5" fill="none" stroke="#162a44" stroke-width="1" />
  <polygon points="1091.2,140.0 1091.2,175.0 1060.9,192.5 1030.6,175.0 1030.6,140.0 1060.9,122.5" fill="none" stroke="#162a44" stroke-width="1" />
  <polygon points="1151.8,140.0 1151.8,175.0 1121.5,192.5 1091.2,175.0 1091.2,140.0 1121.5,122.5" fill="none" stroke="#162a44" stroke-width="1" />
  <polygon points="1212.4,140.0 1212.4,175.0 1182.1,192.5 1151.8,175.0 1151.8,140.0 1182.1,122.5" fill="none" stroke="#162a44" stroke-width="1" />
  <polygon points="1273.1,140.0 1273.1,175.0 1242.7,192.5 1212.4,175.0 1212.4,140.0 1242.7,122.5" fill="none" stroke="#162a44" stroke-width="1" />
  <polygon points="1333.7,140.0 1333.7,175.0 1303.4,192.5 1273.1,175.0 1273.1,140.0 1303.4,122.5" fill="none" stroke="#162a44" stroke-width="1" />
  <polygon points="1394.3,140.0 1394.3,175.0 1364.0,192.5 1333.7,175.0 1333.7,140.0 1364.0,122.5" fill="none" stroke="#162a44" stroke-width="1" />
  <polygon points="30.3,192.5 30.3,227.5 0.0,245.0 -30.3,227.5 -30.3,192.5 -0.0,175.0" fill="none" stroke="#162a44" stroke-width="1" />
  <polygon points="90.9,192.5 90.9,227.5 60.6,245.0 30.3,227.5 30.3,192.5 60.6,175.0" fill="none" stroke="#162a44" stroke-width="1" />
  <polygon points="151.6,192.5 151.6,227.5 121.2,245.0 90.9,227.5 90.9,192.5 121.2,175.0" fill="none" stroke="#162a44" stroke-width="1" />
  <polygon points="212.2,192.5 212.2,227.5 181.9,245.0 151.6,227.5 151.6,192.5 181.9,175.0" fill="none" stroke="#162a44" stroke-width="1" />
  <polygon points="272.8,192.5 272.8,227.5 242.5,245.0 212.2,227.5 212.2,192.5 242.5,175.0" fill="none" stroke="#162a44" stroke-width="1" />
  <polygon points="333.4,192.5 333.4,227.5 303.1,245.0 272.8,227.5 272.8,192.5 303.1,175.0" fill="none" stroke="#162a44" stroke-width="1" />
  <polygon points="394.0,192.5 394.0,227.5 363.7,245.0 333.4,227.5 333.4,192.5 363.7,175.0" fill="none" stroke="#162a44" stroke-width="1" />
  <polygon points="454.7,192.5 454.7,227.5 424.4,245.0 394.0,227.5 394.0,192.5 424.4,175.0" fill="none" stroke="#162a44" stroke-width="1" />
  <polygon points="515.3,192.5 515.3,227.5 485.0,245.0 454.7,227.5 454.7,192.5 485.0,175.0" fill="none" stroke="#162a44" stroke-width="1" />
  <polygon points="575.9,192.5 575.9,227.5 545.6,245.0 515.3,227.5 515.3,192.5 545.6,175.0" fill="none" stroke="#162a44" stroke-width="1" />
  <polygon points="636.5,192.5 636.5,227.5 606.2,245.0 575.9,227.5 575.9,192.5 606.2,175.0" fill="#ff8c00" stroke="#ff8c00" stroke-width="1" />
  <polygon points="697.2,192.5 697.2,227.5 666.8,245.0 636.5,227.5 636.5,192.5 666.8,175.0" fill="#00d1ff" fill-opacity="0.6" stroke="#00d1ff" stroke-width="1" />
  <polygon points="757.8,192.5 757.8,227.5 727.5,245.0 697.2,227.5 697.2,192.5 727.5,175.0" fill="none" stroke="#162a44" stroke-width="1" />
  <polygon points="818.4,192.5 818.4,227.5 788.1,245.0 757.8,227.5 757.8,192.5 788.1,175.0" fill="none" stroke="#162a44" stroke-width="1" />
  <polygon points="879.0,192.5 879.0,227.5 848.7,245.0 818.4,227.5 818.4,192.5 848.7,175.0" fill="none" stroke="#162a44" stroke-width="1" />
  <polygon points="939.6,192.5 939.6,227.5 909.3,245.0 879.0,227.5 879.0,192.5 909.3,175.0" fill="none" stroke="#162a44" stroke-width="1" />
  <polygon points="1000.3,192.5 1000.3,227.5 969.9,245.0 939.6,227.5 939.6,192.5 969.9,175.0" fill="none" stroke="#162a44" stroke-width="1" />
  <polygon points="1060.9,192.5 1060.9,227.5 1030.6,245.0 1000.3,227.5 1000.3,192.5 1030.6,175.0" fill="none" stroke="#162a44" stroke-width="1" />
  <polygon points="1121.5,192.5 1121.5,227.5 1091.2,245.0 1060.9,227.5 1060.9,192.5 1091.2,175.0" fill="none" stroke="#162a44" stroke-width="1" />
  <polygon points="1182.1,192.5 1182.1,227.5 1151.8,245.0 1121.5,227.5 1121.5,192.5 1151.8,175.0" fill="none" stroke="#162a44" stroke-width="1" />
  <polygon points="1242.7,192.5 1242.7,227.5 1212.4,245.0 1182.1,227.5 1182.1,192.5 1212.4,175.0" fill="none" stroke="#162a44" stroke-width="1" />
  <polygon points="1303.4,192.5 1303.4,227.5 1273.1,245.0 1242.7,227.5 1242.7,192.5 1273.1,175.0" fill="none" stroke="#162a44" stroke-width="1" />
  <polygon points="1364.0,192.5 1364.0,227.5 1333.7,245.0 1303.4,227.5 1303.4,192.5 1333.7,175.0" fill="none" stroke="#162a44" stroke-width="1" />
  <polygon points="60.6,245.0 60.6,280.0 30.3,297.5 -0.0,280.0 0.0,245.0 30.3,227.5" fill="none" stroke="#162a44" stroke-width="1" />
  <polygon points="121.2,245.0 121.2,280.0 90.9,297.5 60.6,280.0 60.6,245.0 90.9,227.5" fill="none" stroke="#162a44" stroke-width="1" />
  <polygon points="181.9,245.0 181.9,280.0 151.6,297.5 121.2,280.0 121.2,245.0 151.6,227.5" fill="none" stroke="#162a44" stroke-width="1" />
  <polygon points="242.5,245.0 242.5,280.0 212.2,297.5 181.9,280.0 181.9,245.0 212.2,227.5" fill="none" stroke="#162a44" stroke-width="1" />
  <polygon points="303.1,245.0 303.1,280.0 272.8,297.5 242.5,280.0 242.5,245.0 272.8,227.5" fill="none" stroke="#162a44" stroke-width="1" />
  <polygon points="363.7,245.0 363.7,280.0 333.4,297.5 303.1,280.0 303.1,245.0 333.4,227.5" fill="none" stroke="#162a44" stroke-width="1" />
  <polygon points="424.4,245.0 424.4,280.0 394.0,297.5 363.7,280.0 363.7,245.0 394.0,227.5" fill="none" stroke="#162a44" stroke-width="1" />
  <polygon points="485.0,245.0 485.0,280.0 454.7,297.5 424.4,280.0 424.4,245.0 454.7,227.5" fill="none" stroke="#162a44" stroke-width="1" />
  <polygon points="545.6,245.0 545.6,280.0 515.3,297.5 485.0,280.0 485.0,245.0 515.3,227.5" fill="none" stroke="#162a44" stroke-width="1" />
  <polygon points="606.2,245.0 606.2,280.0 575.9,297.5 545.6,280.0 545.6,245.0 575.9,227.5" fill="#ff8c00" stroke="#ff8c00" stroke-width="1" />
  <polygon points="666.8,245.0 666.8,280.0 636.5,297.5 606.2,280.0 606.2,245.0 636.5,227.5" fill="#00d1ff" fill-opacity="0.6" stroke="#00d1ff" stroke-width="1" />
  <polygon points="727.5,245.0 727.5,280.0 697.2,297.5 666.8,280.0 666.8,245.0 697.2,227.5" fill="none" stroke="#162a44" stroke-width="1" />
  <polygon points="788.1,245.0 788.1,280.0 757.8,297.5 727.5,280.0 727.5,245.0 757.8,227.5" fill="none" stroke="#162a44" stroke-width="1" />
  <polygon points="848.7,245.0 848.7,280.0 818.4,297.5 788.1,280.0 788.1,245.0 818.4,227.5" fill="none" stroke="#162a44" stroke-width="1" />
  <polygon points="909.3,245.0 909.3,280.0 879.0,297.5 848.7,280.0 848.7,245.0 879.0,227.5" fill="none" stroke="#162a44" stroke-width="1" />
  <polygon points="969.9,245.0 969.9,280.0 939.6,297.5 909.3,280.0 909.3,245.0 939.6,227.5" fill="none" stroke="#162a44" stroke-width="1" />
  <polygon points="1030.6,245.0 1030.6,280.0 1000.3,297.5 969.9,280.0 969.9,245.0 1000.3,227.5" fill="none" stroke="#162a44" stroke-width="1" />
  <polygon points="1091.2,245.0 1091.2,280.0 1060.9,297.5 1030.6,280.0 1030.6,245.0 1060.9,227.5" fill="none" stroke="#162a44" stroke-width="1" />
  <polygon points="1151.8,245.0 1151.8,280.0 1121.5,297.5 1091.2,280.0 1091.2,245.0 1121.5,227.5" fill="none" stroke="#162a44" stroke-width="1" />
  <polygon points="1212.4,245.0 1212.4,280.0 1182.1,297.5 1151.8,280.0 1151.8,245.0 1182.1,227.5" fill="none" stroke="#162a44" stroke-width="1" />
  <polygon points="1273.1,245.0 1273.1,280.0 1242.7,297.5 1212.4,280.0 1212.4,245.0 1242.7,227.5" fill="none" stroke="#162a44" stroke-width="1" />
  <polygon points="1333.7,245.0 1333.7,280.0 1303.4,297.5 1273.1,280.0 1273.1,245.0 1303.4,227.5" fill="none" stroke="#162a44" stroke-width="1" />
  <polygon points="1394.3,245.0 1394.3,280.0 1364.0,297.5 1333.7,280.0 1333.7,245.0 1364.0,227.5" fill="none" stroke="#162a44" stroke-width="1" />
  <polygon points="30.3,297.5 30.3,332.5 0.0,350.0 -30.3,332.5 -30.3,297.5 -0.0,280.0" fill="none" stroke="#162a44" stroke-width="1" />
  <polygon points="90.9,297.5 90.9,332.5 60.6,350.0 30.3,332.5 30.3,297.5 60.6,280.0" fill="none" stroke="#162a44" stroke-width="1" />
  <polygon points="151.6,297.5 151.6,332.5 121.2,350.0 90.9,332.5 90.9,297.5 121.2,280.0" fill="none" stroke="#162a44" stroke-width="1" />
  <polygon points="212.2,297.5 212.2,332.5 181.9,350.0 151.6,332.5 151.6,297.5 181.9,280.0" fill="none" stroke="#162a44" stroke-width="1" />
  <polygon points="272.8,297.5 272.8,332.5 242.5,350.0 212.2,332.5 212.2,297.5 242.5,280.0" fill="none" stroke="#162a44" stroke-width="1" />
  <polygon points="333.4,297.5 333.4,332.5 303.1,350.0 272.8,332.5 272.8,297.5 303.1,280.0" fill="none" stroke="#162a44" stroke-width="1" />
  <polygon points="394.0,297.5 394.0,332.5 363.7,350.0 333.4,332.5 333.4,297.5 363.7,280.0" fill="none" stroke="#162a44" stroke-width="1" />
  <polygon points="454.7,297.5 454.7,332.5 424.4,350.0 394.0,332.5 394.0,297.5 424.4,280.0" fill="none" stroke="#162a44" stroke-width="1" />
  <polygon points="515.3,297.5 515.3,332.5 485.0,350.0 454.7,332.5 454.7,297.5 485.0,280.0" fill="none" stroke="#162a44" stroke-width="1" />
  <polygon points="575.9,297.5 575.9,332.5 545.6,350.0 515.3,332.5 515.3,297.5 545.6,280.0" fill="#00d1ff" fill-opacity="0.6" stroke="#00d1ff" stroke-width="1" />
  <polygon points="636.5,297.5 636.5,332.5 606.2,350.0 575.9,332.5 575.9,297.5 606.2,280.0" fill="none" stroke="#162a44" stroke-width="1" />
  <polygon points="697.2,297.5 697.2,332.5 666.8,350.0 636.5,332.5 636.5,297.5 666.8,280.0" fill="none" stroke="#162a44" stroke-width="1" />
  <polygon points="757.8,297.5 757.8,332.5 727.5,350.0 697.2,332.5 697.2,297.5 727.5,280.0" fill="#00d1ff" fill-opacity="0.6" stroke="#00d1ff" stroke-width="1" />
  <polygon points="818.4,297.5 818.4,332.5 788.1,350.0 757.8,332.5 757.8,297.5 788.1,280.0" fill="none" stroke="#162a44" stroke-width="1" />
  <polygon points="879.0,297.5 879.0,332.5 848.7,350.0 818.4,332.5 818.4,297.5 848.7,280.0" fill="none" stroke="#162a44" stroke-width="1" />
  <polygon points="939.6,297.5 939.6,332.5 909.3,350.0 879.0,332.5 879.0,297.5 909.3,280.0" fill="none" stroke="#162a44" stroke-width="1" />
  <polygon points="1000.3,297.5 1000.3,332.5 969.9,350.0 939.6,332.5 939.6,297.5 969.9,280.0" fill="none" stroke="#162a44" stroke-width="1" />
  <polygon points="1060.9,297.5 1060.9,332.5 1030.6,350.0 1000.3,332.5 1000.3,297.5 1030.6,280.0" fill="none" stroke="#162a44" stroke-width="1" />
  <polygon points="1121.5,297.5 1121.5,332.5 1091.2,350.0 1060.9,332.5 1060.9,297.5 1091.2,280.0" fill="none" stroke="#162a44" stroke-width="1" />
  <polygon points="1182.1,297.5 1182.1,332.5 1151.8,350.0 1121.5,332.5 1121.5,297.5 1151.8,280.0" fill="none" stroke="#162a44" stroke-width="1" />
  <polygon points="1242.7,297.5 1242.7,332.5 1212.4,350.0 1182.1,332.5 1182.1,297.5 1212.4,280.0" fill="none" stroke="#162a44" stroke-width="1" />
  <polygon points="1303.4,297.5 1303.4,332.5 1273.1,350.0 1242.7,332.5 1242.7,297.5 1273.1,280.0" fill="none" stroke="#162a44" stroke-width="1" />
  <polygon points="1364.0,297.5 1364.0,332.5 1333.7,350.0 1303.4,332.5 1303.4,297.5 1333.7,280.0" fill="none" stroke="#162a44" stroke-width="1" />
  <polygon points="60.6,350.0 60.6,385.0 30.3,402.5 -0.0,385.0 0.0,350.0 30.3,332.5" fill="none" stroke="#162a44" stroke-width="1" />
  <polygon points="121.2,350.0 121.2,385.0 90.9,402.5 60.6,385.0 60.6,350.0 90.9,332.5" fill="none" stroke="#162a44" stroke-width="1" />
  <polygon points="181.9,350.0 181.9,385.0 151.6,402.5 121.2,385.0 121.2,350.0 151.6,332.5" fill="none" stroke="#162a44" stroke-width="1" />
  <polygon points="242.5,350.0 242.5,385.0 212.2,402.5 181.9,385.0 181.9,350.0 212.2,332.5" fill="none" stroke="#162a44" stroke-width="1" />
  <polygon points="303.1,350.0 303.1,385.0 272.8,402.5 242.5,385.0 242.5,350.0 272.8,332.5" fill="none" stroke="#162a44" stroke-width="1" />
  <polygon points="363.7,350.0 363.7,385.0 333.4,402.5 303.1,385.0 303.1,350.0 333.4,332.5" fill="none" stroke="#162a44" stroke-width="1" />
  <polygon points="424.4,350.0 424.4,385.0 394.0,402.5 363.7,385.0 363.7,350.0 394.0,332.5" fill="none" stroke="#162a44" stroke-width="1" />
  <polygon points="485.0,350.0 485.0,385.0 454.7,402.5 424.4,385.0 424.4,350.0 454.7,332.5" fill="none" stroke="#162a44" stroke-width="1" />
  <polygon points="545.6,350.0 545.6,385.0 515.3,402.5 485.0,385.0 485.0,350.0 515.3,332.5" fill="#00d1ff" fill-opacity="0.6" stroke="#00d1ff" stroke-width="1" />
  <polygon points="606.2,350.0 606.2,385.0 575.9,402.5 545.6,385.0 545.6,350.0 575.9,332.5" fill="none" stroke="#162a44" stroke-width="1" />
  <polygon points="666.8,350.0 666.8,385.0 636.5,402.5 606.2,385.0 606.2,350.0 636.5,332.5" fill="none" stroke="#162a44" stroke-width="1" />
  <polygon points="727.5,350.0 727.5,385.0 697.2,402.5 666.8,385.0 666.8,350.0 697.2,332.5" fill="#00d1ff" fill-opacity="0.6" stroke="#00d1ff" stroke-width="1" />
  <polygon points="788.1,350.0 788.1,385.0 757.8,402.5 727.5,385.0 727.5,350.0 757.8,332.5" fill="none" stroke="#162a44" stroke-width="1" />
  <polygon points="848.7,350.0 848.7,385.0 818.4,402.5 788.1,385.0 788.1,350.0 818.4,332.5" fill="none" stroke="#162a44" stroke-width="1" />
  <polygon points="909.3,350.0 909.3,385.0 879.0,402.5 848.7,385.0 848.7,350.0 879.0,332.5" fill="none" stroke="#162a44" stroke-width="1" />
  <polygon points="969.9,350.0 969.9,385.0 939.6,402.5 909.3,385.0 909.3,350.0 939.6,332.5" fill="none" stroke="#162a44" stroke-width="1" />
  <polygon points="1030.6,350.0 1030.6,385.0 1000.3,402.5 969.9,385.0 969.9,350.0 1000.3,332.5" fill="none" stroke="#162a44" stroke-width="1" />
  <polygon points="1091.2,350.0 1091.2,385.0 1060.9,402.5 1030.6,385.0 1030.6,350.0 1060.9,332.5" fill="none" stroke="#162a44" stroke-width="1" />
  <polygon points="1151.8,350.0 1151.8,385.0 1121.5,402.5 1091.2,385.0 1091.2,350.0 1121.5,332.5" fill="none" stroke="#162a44" stroke-width="1" />
  <polygon points="1212.4,350.0 1212.4,385.0 1182.1,402.5 1151.8,385.0 1151.8,350.0 1182.1,332.5" fill="none" stroke="#162a44" stroke-width="1" />
  <polygon points="1273.1,350.0 1273.1,385.0 1242.7,402.5 1212.4,385.0 1212.4,350.0 1242.7,332.5" fill="none" stroke="#162a44" stroke-width="1" />
  <polygon points="1333.7,350.0 1333.7,385.0 1303.4,402.5 1273.1,385.0 1273.1,350.0 1303.4,332.5" fill="none" stroke="#162a44" stroke-width="1" />
  <polygon points="1394.3,350.0 1394.3,385.0 1364.0,402.5 1333.7,385.0 1333.7,350.0 1364.0,332.5" fill="none" stroke="#162a44" stroke-width="1" />
  <polygon points="30.3,402.5 30.3,437.5 0.0,455.0 -30.3,437.5 -30.3,402.5 -0.0,385.0" fill="none" stroke="#162a44" stroke-width="1" />
  <polygon points="90.9,402.5 90.9,437.5 60.6,455.0 30.3,437.5 30.3,402.5 60.6,385.0" fill="none" stroke="#162a44" stroke-width="1" />
  <polygon points="151.6,402.5 151.6,437.5 121.2,455.0 90.9,437.5 90.9,402.5 121.2,385.0" fill="none" stroke="#162a44" stroke-width="1" />
  <polygon points="212.2,402.5 212.2,437.5 181.9,455.0 151.6,437.5 151.6,402.5 181.9,385.0" fill="none" stroke="#162a44" stroke-width="1" />
  <polygon points="272.8,402.5 272.8,437.5 242.5,455.0 212.2,437.5 212.2,402.5 242.5,385.0" fill="none" stroke="#162a44" stroke-width="1" />
  <polygon points="333.4,402.5 333.4,437.5 303.1,455.0 272.8,437.5 272.8,402.5 303.1,385.0" fill="none" stroke="#162a44" stroke-width="1" />
  <polygon points="394.0,402.5 394.0,437.5 363.7,455.0 333.4,437.5 333.4,402.5 363.7,385.0" fill="none" stroke="#162a44" stroke-width="1" />
  <polygon points="454.7,402.5 454.7,437.5 424.4,455.0 394.0,437.5 394.0,402.5 424.4,385.0" fill="none" stroke="#162a44" stroke-width="1" />
  <polygon points="515.3,402.5 515.3,437.5 485.0,455.0 454.7,437.5 454.7,402.5 485.0,385.0" fill="none" stroke="#162a44" stroke-width="1" />
  <polygon points="575.9,402.5 575.9,437.5 545.6,455.0 515.3,437.5 515.3,402.5 545.6,385.0" fill="none" stroke="#162a44" stroke-width="1" />
  <polygon points="636.5,402.5 636.5,437.5 606.2,455.0 575.9,437.5 575.9,402.5 606.2,385.0" fill="#00d1ff" fill-opacity="0.6" stroke="#00d1ff" stroke-width="1" />
  <polygon points="697.2,402.5 697.2,437.5 666.8,455.0 636.5,437.5 636.5,402.5 666.8,385.0" fill="none" stroke="#162a44" stroke-width="1" />
  <polygon points="757.8,402.5 757.8,437.5 727.5,455.0 697.2,437.5 697.2,402.5 727.5,385.0" fill="none" stroke="#162a44" stroke-width="1" />
  <polygon points="818.4,402.5 818.4,437.5 788.1,455.0 757.8,437.5 757.8,402.5 788.1,385.0" fill="none" stroke="#162a44" stroke-width="1" />
  <polygon points="879.0,402.5 879.0,437.5 848.7,455.0 818.4,437.5 818.4,402.5 848.7,385.0" fill="none" stroke="#162a44" stroke-width="1" />
  <polygon points="939.6,402.5 939.6,437.5 909.3,455.0 879.0,437.5 879.0,402.5 909.3,385.0" fill="none" stroke="#162a44" stroke-width="1" />
  <polygon points="1000.3,402.5 1000.3,437.5 969.9,455.0 939.6,437.5 939.6,402.5 969.9,385.0" fill="none" stroke="#162a44" stroke-width="1" />
  <polygon points="1060.9,402.5 1060.9,437.5 1030.6,455.0 1000.3,437.5 1000.3,402.5 1030.6,385.0" fill="none" stroke="#162a44" stroke-width="1" />
  <polygon points="1121.5,402.5 1121.5,437.5 1091.2,455.0 1060.9,437.5 1060.9,402.5 1091.2,385.0" fill="none" stroke="#162a44" stroke-width="1" />
  <polygon points="1182.1,402.5 1182.1,437.5 1151.8,455.0 1121.5,437.5 1121.5,402.5 1151.8,385.0" fill="none" stroke="#162a44" stroke-width="1" />
  <polygon points="1242.7,402.5 1242.7,437.5 1212.4,455.0 1182.1,437.5 1182.1,402.5 1212.4,385.0" fill="none" stroke="#162a44" stroke-width="1" />
  <polygon points="1303.4,402.5 1303.4,437.5 1273.1,455.0 1242.7,437.5 1242.7,402.5 1273.1,385.0" fill="none" stroke="#162a44" stroke-width="1" />
  <polygon points="1364.0,402.5 1364.0,437.5 1333.7,455.0 1303.4,437.5 1303.4,402.5 1333.7,385.0" fill="none" stroke="#162a44" stroke-width="1" />
  <polygon points="60.6,455.0 60.6,490.0 30.3,507.5 -0.0,490.0 0.0,455.0 30.3,437.5" fill="none" stroke="#162a44" stroke-width="1" />
  <polygon points="121.2,455.0 121.2,490.0 90.9,507.5 60.6,490.0 60.6,455.0 90.9,437.5" fill="none" stroke="#162a44" stroke-width="1" />
  <polygon points="181.9,455.0 181.9,490.0 151.6,507.5 121.2,490.0 121.2,455.0 151.6,437.5" fill="none" stroke="#162a44" stroke-width="1" />
  <polygon points="242.5,455.0 242.5,490.0 212.2,507.5 181.9,490.0 181.9,455.0 212.2,437.5" fill="none" stroke="#162a44" stroke-width="1" />
  <polygon points="303.1,455.0 303.1,490.0 272.8,507.5 242.5,490.0 242.5,455.0 272.8,437.5" fill="none" stroke="#162a44" stroke-width="1" />
  <polygon points="363.7,455.0 363.7,490.0 333.4,507.5 303.1,490.0 303.1,455.0 333.4,437.5" fill="none" stroke="#162a44" stroke-width="1" />
  <polygon points="424.4,455.0 424.4,490.0 394.0,507.5 363.7,490.0 363.7,455.0 394.0,437.5" fill="none" stroke="#162a44" stroke-width="1" />
  <polygon points="485.0,455.0 485.0,490.0 454.7,507.5 424.4,490.0 424.4,455.0 454.7,437.5" fill="none" stroke="#162a44" stroke-width="1" />
  <polygon points="545.6,455.0 545.6,490.0 515.3,507.5 485.0,490.0 485.0,455.0 515.3,437.5" fill="none" stroke="#162a44" stroke-width="1" />
  <polygon points="606.2,455.0 606.2,490.0 575.9,507.5 545.6,490.0 545.6,455.0 575.9,437.5" fill="none" stroke="#162a44" stroke-width="1" />
  <polygon points="666.8,455.0 666.8,490.0 636.5,507.5 606.2,490.0 606.2,455.0 636.5,437.5" fill="none" stroke="#162a44" stroke-width="1" />
  <polygon points="727.5,455.0 727.5,490.0 697.2,507.5 666.8,490.0 666.8,455.0 697.2,437.5" fill="none" stroke="#162a44" stroke-width="1" />
  <polygon points="788.1,455.0 788.1,490.0 757.8,507.5 727.5,490.0 727.5,455.0 757.8,437.5" fill="none" stroke="#162a44" stroke-width="1" />
  <polygon points="848.7,455.0 848.7,490.0 818.4,507.5 788.1,490.0 788.1,455.0 818.4,437.5" fill="none" stroke="#162a44" stroke-width="1" />
  <polygon points="909.3,455.0 909.3,490.0 879.0,507.5 848.7,490.0 848.7,455.0 879.0,437.5" fill="none" stroke="#162a44" stroke-width="1" />
  <polygon points="969.9,455.0 969.9,490.0 939.6,507.5 909.3,490.0 909.3,455.0 939.6,437.5" fill="none" stroke="#162a44" stroke-width="1" />
  <polygon points="1030.6,455.0 1030.6,490.0 1000.3,507.5 969.9,490.0 969.9,455.0 1000.3,437.5" fill="none" stroke="#162a44" stroke-width="1" />
  <polygon points="1091.2,455.0 1091.2,490.0 1060.9,507.5 1030.6,490.0 1030.6,455.0 1060.9,437.5" fill="none" stroke="#162a44" stroke-width="1" />
  <polygon points="1151.8,455.0 1151.8,490.0 1121.5,507.5 1091.2,490.0 1091.2,455.0 1121.5,437.5" fill="none" stroke="#162a44" stroke-width="1" />
  <polygon points="1212.4,455.0 1212.4,490.0 1182.1,507.5 1151.8,490.0 1151.8,455.0 1182.1,437.5" fill="none" stroke="#162a44" stroke-width="1" />
  <polygon points="1273.1,455.0 1273.1,490.0 1242.7,507.5 1212.4,490.0 1212.4,455.0 1242.7,437.5" fill="none" stroke="#162a44" stroke-width="1" />
  <polygon points="1333.7,455.0 1333.7,490.0 1303.4,507.5 1273.1,490.0 1273.1,455.0 1303.4,437.5" fill="none" stroke="#162a44" stroke-width="1" />
  <polygon points="1394.3,455.0 1394.3,490.0 1364.0,507.5 1333.7,490.0 1333.7,455.0 1364.0,437.5" fill="none" stroke="#162a44" stroke-width="1" />
  <polygon points="30.3,507.5 30.3,542.5 0.0,560.0 -30.3,542.5 -30.3,507.5 -0.0,490.0" fill="none" stroke="#162a44" stroke-width="1" />
  <polygon points="90.9,507.5 90.9,542.5 60.6,560.0 30.3,542.5 30.3,507.5 60.6,490.0" fill="none" stroke="#162a44" stroke-width="1" />
  <polygon points="151.6,507.5 151.6,542.5 121.2,560.0 90.9,542.5 90.9,507.5 121.2,490.0" fill="none" stroke="#162a44" stroke-width="1" />
  <polygon points="212.2,507.5 212.2,542.5 181.9,560.0 151.6,542.5 151.6,507.5 181.9,490.0" fill="none" stroke="#162a44" stroke-width="1" />
  <polygon points="272.8,507.5 272.8,542.5 242.5,560.0 212.2,542.5 212.2,507.5 242.5,490.0" fill="none" stroke="#162a44" stroke-width="1" />
  <polygon points="333.4,507.5 333.4,542.5 303.1,560.0 272.8,542.5 272.8,507.5 303.1,490.0" fill="none" stroke="#162a44" stroke-width="1" />
  <polygon points="394.0,507.5 394.0,542.5 363.7,560.0 333.4,542.5 333.4,507.5 363.7,490.0" fill="none" stroke="#162a44" stroke-width="1" />
  <polygon points="454.7,507.5 454.7,542.5 424.4,560.0 394.0,542.5 394.0,507.5 424.4,490.0" fill="none" stroke="#162a44" stroke-width="1" />
  <polygon points="515.3,507.5 515.3,542.5 485.0,560.0 454.7,542.5 454.7,507.5 485.0,490.0" fill="none" stroke="#162a44" stroke-width="1" />
  <polygon points="575.9,507.5 575.9,542.5 545.6,560.0 515.3,542.5 515.3,507.5 545.6,490.0" fill="none" stroke="#162a44" stroke-width="1" />
  <polygon points="636.5,507.5 636.5,542.5 606.2,560.0 575.9,542.5 575.9,507.5 606.2,490.0" fill="none" stroke="#162a44" stroke-width="1" />
  <polygon points="697.2,507.5 697.2,542.5 666.8,560.0 636.5,542.5 636.5,507.5 666.8,490.0" fill="none" stroke="#162a44" stroke-width="1" />
  <polygon points="757.8,507.5 757.8,542.5 727.5,560.0 697.2,542.5 697.2,507.5 727.5,490.0" fill="none" stroke="#162a44" stroke-width="1" />
  <polygon points="818.4,507.5 818.4,542.5 788.1,560.0 757.8,542.5 757.8,507.5 788.1,490.0" fill="none" stroke="#162a44" stroke-width="1" />
  <polygon points="879.0,507.5 879.0,542.5 848.7,560.0 818.4,542.5 818.4,507.5 848.7,490.0" fill="none" stroke="#162a44" stroke-width="1" />
  <polygon points="939.6,507.5 939.6,542.5 909.3,560.0 879.0,542.5 879.0,507.5 909.3,490.0" fill="none" stroke="#162a44" stroke-width="1" />
  <polygon points="1000.3,507.5 1000.3,542.5 969.9,560.0 939.6,542.5 939.6,507.5 969.9,490.0" fill="none" stroke="#162a44" stroke-width="1" />
  <polygon points="1060.9,507.5 1060.9,542.5 1030.6,560.0 1000.3,542.5 1000.3,507.5 1030.6,490.0" fill="none" stroke="#162a44" stroke-width="1" />
  <polygon points="1121.5,507.5 1121.5,542.5 1091.2,560.0 1060.9,542.5 1060.9,507.5 1091.2,490.0" fill="none" stroke="#162a44" stroke-width="1" />
  <polygon points="1182.1,507.5 1182.1,542.5 1151.8,560.0 1121.5,542.5 1121.5,507.5 1151.8,490.0" fill="none" stroke="#162a44" stroke-width="1" />
  <polygon points="1242.7,507.5 1242.7,542.5 1212.4,560.0 1182.1,542.5 1182.1,507.5 1212.4,490.0" fill="none" stroke="#162a44" stroke-width="1" />
  <polygon points="1303.4,507.5 1303.4,542.5 1273.1,560.0 1242.7,542.5 1242.7,507.5 1273.1,490.0" fill="none" stroke="#162a44" stroke-width="1" />
  <polygon points="1364.0,507.5 1364.0,542.5 1333.7,560.0 1303.4,542.5 1303.4,507.5 1333.7,490.0" fill="none" stroke="#162a44" stroke-width="1" />
  <polygon points="60.6,560.0 60.6,595.0 30.3,612.5 -0.0,595.0 0.0,560.0 30.3,542.5" fill="none" stroke="#162a44" stroke-width="1" />
  <polygon points="121.2,560.0 121.2,595.0 90.9,612.5 60.6,595.0 60.6,560.0 90.9,542.5" fill="none" stroke="#162a44" stroke-width="1" />
  <polygon points="181.9,560.0 181.9,595.0 151.6,612.5 121.2,595.0 121.2,560.0 151.6,542.5" fill="none" stroke="#162a44" stroke-width="1" />
  <polygon points="242.5,560.0 242.5,595.0 212.2,612.5 181.9,595.0 181.9,560.0 212.2,542.5" fill="none" stroke="#162a44" stroke-width="1" />
  <polygon points="303.1,560.0 303.1,595.0 272.8,612.5 242.5,595.0 242.5,560.0 272.8,542.5" fill="none" stroke="#162a44" stroke-width="1" />
  <polygon points="363.7,560.0 363.7,595.0 333.4,612.5 303.1,595.0 303.1,560.0 333.4,542.5" fill="none" stroke="#162a44" stroke-width="1" />
  <polygon points="424.4,560.0 424.4,595.0 394.0,612.5 363.7,595.0 363.7,560.0 394.0,542.5" fill="none" stroke="#162a44" stroke-width="1" />
  <polygon points="485.0,560.0 485.0,595.0 454.7,612.5 424.4,595.0 424.4,560.0 454.7,542.5" fill="none" stroke="#162a44" stroke-width="1" />
  <polygon points="545.6,560.0 545.6,595.0 515.3,612.5 485.0,595.0 485.0,560.0 515.3,542.5" fill="none" stroke="#162a44" stroke-width="1" />
  <polygon points="606.2,560.0 606.2,595.0 575.9,612.5 545.6,595.0 545.6,560.0 575.9,542.5" fill="none" stroke="#162a44" stroke-width="1" />
  <polygon points="666.8,560.0 666.8,595.0 636.5,612.5 606.2,595.0 606.2,560.0 636.5,542.5" fill="none" stroke="#162a44" stroke-width="1" />
  <polygon points="727.5,560.0 727.5,595.0 697.2,612.5 666.8,595.0 666.8,560.0 697.2,542.5" fill="none" stroke="#162a44" stroke-width="1" />
  <polygon points="788.1,560.0 788.1,595.0 757.8,612.5 727.5,595.0 727.5,560.0 757.8,542.5" fill="none" stroke="#162a44" stroke-width="1" />
  <polygon points="848.7,560.0 848.7,595.0 818.4,612.5 788.1,595.0 788.1,560.0 818.4,542.5" fill="none" stroke="#162a44" stroke-width="1" />
  <polygon points="909.3,560.0 909.3,595.0 879.0,612.5 848.7,595.0 848.7,560.0 879.0,542.5" fill="none" stroke="#162a44" stroke-width="1" />
  <polygon points="969.9,560.0 969.9,595.0 939.6,612.5 909.3,595.0 909.3,560.0 939.6,542.5" fill="none" stroke="#162a44" stroke-width="1" />
  <polygon points="1030.6,560.0 1030.6,595.0 1000.3,612.5 969.9,595.0 969.9,560.0 1000.3,542.5" fill="none" stroke="#162a44" stroke-width="1" />
  <polygon points="1091.2,560.0 1091.2,595.0 1060.9,612.5 1030.6,595.0 1030.6,560.0 1060.9,542.5" fill="none" stroke="#162a44" stroke-width="1" />
  <polygon points="1151.8,560.0 1151.8,595.0 1121.5,612.5 1091.2,595.0 1091.2,560.0 1121.5,542.5" fill="none" stroke="#162a44" stroke-width="1" />
  <polygon points="1212.4,560.0 1212.4,595.0 1182.1,612.5 1151.8,595.0 1151.8,560.0 1182.1,542.5" fill="none" stroke="#162a44" stroke-width="1" />
  <polygon points="1273.1,560.0 1273.1,595.0 1242.7,612.5 1212.4,595.0 1212.4,560.0 1242.7,542.5" fill="none" stroke="#162a44" stroke-width="1" />
  <polygon points="1333.7,560.0 1333.7,595.0 1303.4,612.5 1273.1,595.0 1273.1,560.0 1303.4,542.5" fill="none" stroke="#162a44" stroke-width="1" />
  <polygon points="1394.3,560.0 1394.3,595.0 1364.0,612.5 1333.7,595.0 1333.7,560.0 1364.0,542.5" fill="none" stroke="#162a44" stroke-width="1" />
  <polygon points="30.3,612.5 30.3,647.5 0.0,665.0 -30.3,647.5 -30.3,612.5 -0.0,595.0" fill="none" stroke="#162a44" stroke-width="1" />
  <polygon points="90.9,612.5 90.9,647.5 60.6,665.0 30.3,647.5 30.3,612.5 60.6,595.0" fill="none" stroke="#162a44" stroke-width="1" />
  <polygon points="151.6,612.5 151.6,647.5 121.2,665.0 90.9,647.5 90.9,612.5 121.2,595.0" fill="none" stroke="#162a44" stroke-width="1" />
  <polygon points="212.2,612.5 212.2,647.5 181.9,665.0 151.6,647.5 151.6,612.5 181.9,595.0" fill="none" stroke="#162a44" stroke-width="1" />
  <polygon points="272.8,612.5 272.8,647.5 242.5,665.0 212.2,647.5 212.2,612.5 242.5,595.0" fill="none" stroke="#162a44" stroke-width="1" />
  <polygon points="333.4,612.5 333.4,647.5 303.1,665.0 272.8,647.5 272.8,612.5 303.1,595.0" fill="none" stroke="#162a44" stroke-width="1" />
  <polygon points="394.0,612.5 394.0,647.5 363.7,665.0 333.4,647.5 333.4,612.5 363.7,595.0" fill="none" stroke="#162a44" stroke-width="1" />
  <polygon points="454.7,612.5 454.7,647.5 424.4,665.0 394.0,647.5 394.0,612.5 424.4,595.0" fill="none" stroke="#162a44" stroke-width="1" />
  <polygon points="515.3,612.5 515.3,647.5 485.0,665.0 454.7,647.5 454.7,612.5 485.0,595.0" fill="none" stroke="#162a44" stroke-width="1" />
  <polygon points="575.9,612.5 575.9,647.5 545.6,665.0 515.3,647.5 515.3,612.5 545.6,595.0" fill="none" stroke="#162a44" stroke-width="1" />
  <polygon points="636.5,612.5 636.5,647.5 606.2,665.0 575.9,647.5 575.9,612.5 606.2,595.0" fill="none" stroke="#162a44" stroke-width="1" />
  <polygon points="697.2,612.5 697.2,647.5 666.8,665.0 636.5,647.5 636.5,612.5 666.8,595.0" fill="none" stroke="#162a44" stroke-width="1" />
  <polygon points="757.8,612.5 757.8,647.5 727.5,665.0 697.2,647.5 697.2,612.5 727.5,595.0" fill="none" stroke="#162a44" stroke-width="1" />
  <polygon points="818.4,612.5 818.4,647.5 788.1,665.0 757.8,647.5 757.8,612.5 788.1,595.0" fill="none" stroke="#162a44" stroke-width="1" />
  <polygon points="879.0,612.5 879.0,647.5 848.7,665.0 818.4,647.5 818.4,612.5 848.7,595.0" fill="none" stroke="#162a44" stroke-width="1" />
  <polygon points="939.6,612.5 939.6,647.5 909.3,665.0 879.0,647.5 879.0,612.5 909.3,595.0" fill="none" stroke="#162a44" stroke-width="1" />
  <polygon points="1000.3,612.5 1000.3,647.5 969.9,665.0 939.6,647.5 939.6,612.5 969.9,595.0" fill="none" stroke="#162a44" stroke-width="1" />
  <polygon points="1060.9,612.5 1060.9,647.5 1030.6,665.0 1000.3,647.5 1000.3,612.5 1030.6,595.0" fill="none" stroke="#162a44" stroke-width="1" />
  <polygon points="1121.5,612.5 1121.5,647.5 1091.2,665.0 1060.9,647.5 1060.9,612.5 1091.2,595.0" fill="none" stroke="#162a44" stroke-width="1" />
  <polygon points="1182.1,612.5 1182.1,647.5 1151.8,665.0 1121.5,647.5 1121.5,612.5 1151.8,595.0" fill="none" stroke="#162a44" stroke-width="1" />
  <polygon points="1242.7,612.5 1242.7,647.5 1212.4,665.0 1182.1,647.5 1182.1,612.5 1212.4,595.0" fill="none" stroke="#162a44" stroke-width="1" />
  <polygon points="1303.4,612.5 1303.4,647.5 1273.1,665.0 1242.7,647.5 1242.7,612.5 1273.1,595.0" fill="none" stroke="#162a44" stroke-width="1" />
  <polygon points="1364.0,612.5 1364.0,647.5 1333.7,665.0 1303.4,647.5 1303.4,612.5 1333.7,595.0" fill="none" stroke="#162a44" stroke-width="1" />
  <polygon points="60.6,665.0 60.6,700.0 30.3,717.5 -0.0,700.0 0.0,665.0 30.3,647.5" fill="none" stroke="#162a44" stroke-width="1" />
  <polygon points="121.2,665.0 121.2,700.0 90.9,717.5 60.6,700.0 60.6,665.0 90.9,647.5" fill="none" stroke="#162a44" stroke-width="1" />
  <polygon points="181.9,665.0 181.9,700.0 151.6,717.5 121.2,700.0 121.2,665.0 151.6,647.5" fill="none" stroke="#162a44" stroke-width="1" />
  <polygon points="242.5,665.0 242.5,700.0 212.2,717.5 181.9,700.0 181.9,665.0 212.2,647.5" fill="none" stroke="#162a44" stroke-width="1" />
  <polygon points="303.1,665.0 303.1,700.0 272.8,717.5 242.5,700.0 242.5,665.0 272.8,647.5" fill="none" stroke="#162a44" stroke-width="1" />
  <polygon points="363.7,665.0 363.7,700.0 333.4,717.5 303.1,700.0 303.1,665.0 333.4,647.5" fill="none" stroke="#162a44" stroke-width="1" />
  <polygon points="424.4,665.0 424.4,700.0 394.0,717.5 363.7,700.0 363.7,665.0 394.0,647.5" fill="none" stroke="#162a44" stroke-width="1" />
  <polygon points="485.0,665.0 485.0,700.0 454.7,717.5 424.4,700.0 424.4,665.0 454.7,647.5" fill="none" stroke="#162a44" stroke-width="1" />
  <polygon points="545.6,665.0 545.6,700.0 515.3,717.5 485.0,700.0 485.0,665.0 515.3,647.5" fill="none" stroke="#162a44" stroke-width="1" />
  <polygon points="606.2,665.0 606.2,700.0 575.9,717.5 545.6,700.0 545.6,665.0 575.9,647.5" fill="none" stroke="#162a44" stroke-width="1" />
  <polygon points="666.8,665.0 666.8,700.0 636.5,717.5 606.2,700.0 606.2,665.0 636.5,647.5" fill="none" stroke="#162a44" stroke-width="1" />
  <polygon points="727.5,665.0 727.5,700.0 697.2,717.5 666.8,700.0 666.8,665.0 697.2,647.5" fill="none" stroke="#162a44" stroke-width="1" />
  <polygon points="788.1,665.0 788.1,700.0 757.8,717.5 727.5,700.0 727.5,665.0 757.8,647.5" fill="none" stroke="#162a44" stroke-width="1" />
  <polygon points="848.7,665.0 848.7,700.0 818.4,717.5 788.1,700.0 788.1,665.0 818.4,647.5" fill="none" stroke="#162a44" stroke-width="1" />
  <polygon points="909.3,665.0 909.3,700.0 879.0,717.5 848.7,700.0 848.7,665.0 879.0,647.5" fill="none" stroke="#162a44" stroke-width="1" />
  <polygon points="969.9,665.0 969.9,700.0 939.6,717.5 909.3,700.0 909.3,665.0 939.6,647.5" fill="none" stroke="#162a44" stroke-width="1" />
  <polygon points="1030.6,665.0 1030.6,700.0 1000.3,717.5 969.9,700.0 969.9,665.0 1000.3,647.5" fill="none" stroke="#162a44" stroke-width="1" />
  <polygon points="1091.2,665.0 1091.2,700.0 1060.9,717.5 1030.6,700.0 1030.6,665.0 1060.9,647.5" fill="none" stroke="#162a44" stroke-width="1" />
  <polygon points="1151.8,665.0 1151.8,700.0 1121.5,717.5 1091.2,700.0 1091.2,665.0 1121.5,647.5" fill="none" stroke="#162a44" stroke-width="1" />
  <polygon points="1212.4,665.0 1212.4,700.0 1182.1,717.5 1151.8,700.0 1151.8,665.0 1182.1,647.5" fill="none" stroke="#162a44" stroke-width="1" />
  <polygon points="1273.1,665.0 1273.1,700.0 1242.7,717.5 1212.4,700.0 1212.4,665.0 1242.7,647.5" fill="none" stroke="#162a44" stroke-width="1" />
  <polygon points="1333.7,665.0 1333.7,700.0 1303.4,717.5 1273.1,700.0 1273.1,665.0 1303.4,647.5" fill="none" stroke="#162a44" stroke-width="1" />
  <polygon points="1394.3,665.0 1394.3,700.0 1364.0,717.5 1333.7,700.0 1333.7,665.0 1364.0,647.5" fill="none" stroke="#162a44" stroke-width="1" />
  <text x="640.0" y="520.0" font-family="sans-serif" font-size="60" font-weight="bold" fill="white" text-anchor="middle" style="text-shadow: 2px 2px 4px rgba(0,0,0,0.5)">NectarCam L2 Trigger</text>
  <text x="640.0" y="580.0" font-family="sans-serif" font-size="30" fill="#00d1ff" text-anchor="middle">OPC UA INTERFACE</text>
  <rect x="20" y="20" width="1240" height="600" fill="none" stroke="#1c3a5a" stroke-width="40" />
</svg>